<?xml version="1.0" encoding="UTF-8"?>
<svg id="Layer_2" data-name="Layer 2" xmlns="http://www.w3.org/2000/svg" viewBox="0 0 98.3 22.96">
  <defs>
    <style>
      .cls-1 {
        fill: #f97315;
        stroke-width: 0px;
      }
    </style>
  </defs>
  <g id="Layer_1-2" data-name="Layer 1">
    <path class="cls-1" d="M0,11.7v9.09c0,1.2.97,2.17,2.17,2.17h32.87c1.2,0,2.17-.97,2.17-2.17V7.65c0-.81-.45-1.55-1.16-1.92L25.68.25c-.58-.3-1.26-.33-1.86-.08L1.33,9.7c-.8.34-1.33,1.13-1.33,2Z"/>
    <g>
      <path class="cls-1" d="M40.69,21.48v-10.2h1.26l.21,1.77c.67-1.31,2.02-2.04,3.5-2.04,2.8,0,3.96,1.67,3.96,4.24v6.24h-1.45v-5.92c0-2.38-1.07-3.22-2.76-3.22-2.09,0-3.27,1.52-3.27,3.81v5.33h-1.45Z"/>
      <path class="cls-1" d="M55.95,11.01c2.99,0,5.18,2.25,5.18,5.37s-2.19,5.35-5.18,5.35-5.18-2.25-5.18-5.35,2.19-5.37,5.18-5.37ZM55.95,20.42c2.17,0,3.71-1.66,3.71-4.07s-1.54-4.05-3.71-4.05-3.71,1.69-3.71,4.05,1.52,4.07,3.71,4.07Z"/>
      <path class="cls-1" d="M62.39,21.48v-10.2h1.26l.17,1.45c.51-1.07,1.64-1.73,3.08-1.73,1.6,0,2.8.84,3.29,2.17.46-1.33,1.71-2.17,3.35-2.17,2.21,0,3.67,1.43,3.67,3.79v6.68h-1.41v-6.38c0-1.75-.97-2.78-2.53-2.78-1.71,0-2.72,1.29-2.72,2.87v6.3h-1.43v-6.41c0-1.73-.99-2.74-2.53-2.74-1.71,0-2.74,1.26-2.74,2.82v6.32h-1.45Z"/>
      <path class="cls-1" d="M78.56,18.72c0-1.88,1.43-3.06,3.81-3.25l3.37-.27v-.34c0-2-1.2-2.63-2.7-2.63-1.77,0-2.82.8-2.82,2.17h-1.33c0-2.07,1.69-3.39,4.19-3.39,2.36,0,4.09,1.18,4.09,3.88v6.6h-1.22l-.19-1.79c-.63,1.29-2.02,2.04-3.75,2.04-2.17,0-3.46-1.22-3.46-3.01ZM85.74,16.84v-.55l-3.01.23c-1.92.17-2.7,1.01-2.7,2.15,0,1.24.93,1.88,2.32,1.88,2.15,0,3.39-1.5,3.39-3.71Z"/>
      <path class="cls-1" d="M88.31,16.4c0-3.08,1.75-5.39,4.78-5.39,1.69,0,3.03.74,3.75,2.21v-7.1h1.45v15.36h-1.26l-.15-2.09c-.72,1.58-2.15,2.34-3.86,2.34-2.97,0-4.72-2.28-4.72-5.33ZM96.83,16.36c0-2.34-1.31-4.05-3.54-4.05s-3.5,1.71-3.5,4.05,1.29,4.05,3.5,4.05,3.54-1.69,3.54-4.05Z"/>
    </g>
  </g>
</svg>