<?xml version="1.0" encoding="utf-8"?>
<!-- Generator: Adobe Illustrator 28.3.0, SVG Export Plug-In . SVG Version: 6.00 Build 0)  -->
<svg version="1.1" id="Layer_2_00000066517841261132398930000007724034155125785527_"
	 xmlns="http://www.w3.org/2000/svg" xmlns:xlink="http://www.w3.org/1999/xlink" x="0px" y="0px" viewBox="0 0 98.3 23"
	 style="enable-background:new 0 0 98.3 23;" xml:space="preserve">
<style type="text/css">
	.st0{fill:#F97315;}
	.st1{fill:#F27321;}
</style>
<g id="Layer_1-2">
	<g>
		<path class="st0" d="M40.6,21.4V11.2h1.3l0.2,1.8c0.7-1.3,2-2,3.5-2c2.8,0,4,1.7,4,4.2v6.2h-1.5v-5.9c0-2.4-1.1-3.2-2.8-3.2
			c-2.1,0-3.3,1.5-3.3,3.8v5.3H40.6L40.6,21.4z"/>
		<path class="st0" d="M55.9,10.9c3,0,5.2,2.2,5.2,5.4s-2.2,5.4-5.2,5.4s-5.2-2.2-5.2-5.4S52.9,10.9,55.9,10.9z M55.9,20.3
			c2.2,0,3.7-1.7,3.7-4.1s-1.5-4.1-3.7-4.1s-3.7,1.7-3.7,4.1S53.7,20.3,55.9,20.3z"/>
		<path class="st0" d="M62.3,21.4V11.2h1.3l0.2,1.4c0.5-1.1,1.6-1.7,3.1-1.7c1.6,0,2.8,0.8,3.3,2.2c0.5-1.3,1.7-2.2,3.3-2.2
			c2.2,0,3.7,1.4,3.7,3.8v6.7h-1.4V15c0-1.8-1-2.8-2.5-2.8c-1.7,0-2.7,1.3-2.7,2.9v6.3h-1.4V15c0-1.7-1-2.7-2.5-2.7
			c-1.7,0-2.7,1.3-2.7,2.8v6.3H62.3L62.3,21.4z"/>
		<path class="st0" d="M78.5,18.6c0-1.9,1.4-3.1,3.8-3.2l3.4-0.3v-0.3c0-2-1.2-2.6-2.7-2.6c-1.8,0-2.8,0.8-2.8,2.2h-1.3
			c0-2.1,1.7-3.4,4.2-3.4c2.4,0,4.1,1.2,4.1,3.9v6.6H86l-0.2-1.8c-0.6,1.3-2,2-3.8,2C79.7,21.6,78.4,20.4,78.5,18.6L78.5,18.6z
			 M85.6,16.7v-0.5l-3,0.2c-1.9,0.2-2.7,1-2.7,2.1c0,1.2,0.9,1.9,2.3,1.9C84.4,20.4,85.6,18.9,85.6,16.7z"/>
		<path class="st0" d="M88.2,16.3c0-3.1,1.8-5.4,4.8-5.4c1.7,0,3,0.7,3.8,2.2V6h1.4v15.4h-1.3l-0.2-2.1c-0.7,1.6-2.2,2.3-3.9,2.3
			C89.9,21.6,88.2,19.3,88.2,16.3L88.2,16.3z M96.7,16.3c0-2.3-1.3-4.1-3.5-4.1s-3.5,1.7-3.5,4.1s1.3,4,3.5,4S96.7,18.6,96.7,16.3z"
			/>
	</g>
</g>
<path class="st1" d="M0,12.8v6C0,21.2,1.9,23,4.2,23h25.1c2.3,0,4.2-1.9,4.2-4.2v-10c0-1.6-0.9-3.1-2.4-3.8l-10-4.6
	c-1.1-0.5-2.3-0.5-3.4-0.1L2.6,9C1,9.6,0,11.2,0,12.8z"/>
</svg>
